<?xml version="1.0" encoding="UTF-8"?>
<svg width="1024px" height="1024px" viewBox="0 0 1024 1024" version="1.1" xmlns="http://www.w3.org/2000/svg" xmlns:xlink="http://www.w3.org/1999/xlink">
    <!-- Generator: Sketch 51.3 (57544) - http://www.bohemiancoding.com/sketch -->
    <title>Jocono App Icon</title>
    <desc>Created with Sketch.</desc>
    <defs>
        <rect id="path-1" x="0" y="0" width="1024" height="1024"></rect>
        <path d="M51.3778558,-2.07572687e-15 L972.622144,2.07572687e-15 C990.487344,-1.20605709e-15 996.965697,1.86013822 1003.49695,5.35308895 C1010.0282,8.84603967 1015.15396,13.9718029 1018.64691,20.5030529 C1022.13986,27.0343029 1024,33.512656 1024,51.3778558 L1024,972.622144 C1024,990.487344 1022.13986,996.965697 1018.64691,1003.49695 C1015.15396,1010.0282 1010.0282,1015.15396 1003.49695,1018.64691 C996.965697,1022.13986 990.487344,1024 972.622144,1024 L51.3778558,1024 C33.512656,1024 27.0343029,1022.13986 20.5030529,1018.64691 C13.9718029,1015.15396 8.84603967,1010.0282 5.35308895,1003.49695 C1.86013822,996.965697 8.04038057e-16,990.487344 -1.38381791e-15,972.622144 L1.38381791e-15,51.3778558 C-8.04038057e-16,33.512656 1.86013822,27.0343029 5.35308895,20.5030529 C8.84603967,13.9718029 13.9718029,8.84603967 20.5030529,5.35308895 C27.0343029,1.86013822 33.512656,1.20605709e-15 51.3778558,-2.07572687e-15 Z" id="path-3"></path>
    </defs>
    <g id="Jocono-App-Icon" stroke="none" stroke-width="1" fill="none" fill-rule="evenodd">
        <rect fill="#191919" x="0" y="0" width="1024" height="1024"></rect>
        <g id="change-anything-in-this-icon">
            <g id="icon">
                <mask id="mask-2" fill="white">
                    <use xlink:href="#path-1"></use>
                </mask>
                <g id="Mask"></g>
                <g id="Rectangle" mask="url(#mask-2)">
                    <mask id="mask-4" fill="white">
                        <use xlink:href="#path-3"></use>
                    </mask>
                    <use id="Mask" fill="#191919" xlink:href="#path-3"></use>
                    <g id="Group-6" mask="url(#mask-4)" fill="#FFFFFF">
                        <g transform="translate(507.000000, 521.845505) scale(1, -1) translate(-507.000000, -521.845505) translate(98.000000, 273.845505)">
                            <path d="M336.917508,319.368399 C336.917508,206.261405 336.410865,145.514053 335.52424,137.888863 C331.217775,101.160862 315.638507,69.5163207 290.053042,45.2427974 C265.227542,21.8588796 235.208952,7.49810406 199.237308,1.77921113 C180.998165,-1.01669208 140.846717,-0.12708651 122.607574,3.68550878 C88.662502,10.6752668 61.6837693,23.8922638 42.1780188,42.8281537 C16.4658932,68.1183691 3.29317865,99.508737 1.64658932,139.540988 L0.88662502,155.045542 L63.2036979,155.045542 C121.594288,155.045542 125.39411,154.918455 125.39411,152.885071 C125.39411,145.132794 128.307306,127.340683 130.587199,121.367617 C135.780289,107.515187 151.232896,99.508737 170.738647,100.652516 C191.131022,101.923381 202.910469,112.217388 210.003469,135.09296 C211.90338,141.066026 212.156701,159.11231 212.410023,315.555803 L212.790005,489.283062 L274.853756,489.283062 L336.917508,489.283062 L336.917508,319.368399 Z" id="Path" fill-rule="nonzero"></path>
                            <path d="M626.337246,494.366522 C613.291192,495.510301 597.711924,495.764474 587.705728,494.874868 C571.493156,493.34983 558.573763,491.189359 546.034352,487.88511 C472.064493,468.822134 418.107027,409.853993 399.614563,327.883195 C394.041491,303.609671 392.268241,284.292522 392.268241,247.818694 C392.268241,215.030374 393.281527,199.52582 397.081348,178.810719 C415.447152,78.6665494 483.590618,11.5648724 577.319549,1.2708651 C597.078621,-0.889605567 633.683568,0.381259529 650.402783,3.68550878 C689.920926,11.8190454 723.865999,29.8653297 750.971392,57.0618428 C767.943928,74.0914351 779.090071,89.8501623 790.362875,112.471561 C802.775625,137.63469 810.121947,162.416559 814.681733,193.806927 C816.961626,209.438568 816.961626,284.927954 814.681733,300.559595 C810.375268,330.552011 802.775625,356.350573 791.629482,379.353231 C758.571035,447.344514 701.320391,487.249678 626.337246,494.366522 Z M584.66587,390.66393 C594.545406,393.078574 613.037871,393.078574 623.044068,390.791017 C656.229176,382.911653 677.381515,355.333881 686.501087,308.057699 C691.820837,279.971581 692.32748,219.859662 687.261051,191.265197 C680.421373,152.757984 666.995337,127.340683 645.969658,113.488253 C620.510853,96.8399203 583.019281,98.1107854 559.207066,116.538329 C541.094584,130.517845 528.428512,156.18932 522.475458,190.502678 C517.662351,218.334623 517.662351,275.396466 522.348798,305.007623 C530.201762,353.55467 551.354102,382.530394 584.66587,390.66393 Z" id="Combined-Shape" fill-rule="evenodd"></path>
                        </g>
                    </g>
                </g>
            </g>
            <g id="Jocono-App-Icon" transform="translate(422.000000, 276.000000)"></g>
        </g>
    </g>
</svg>